<?xml version="1.0" standalone="no"?>
<!DOCTYPE svg PUBLIC "-//W3C//DTD SVG 20010904//EN"
 "http://www.w3.org/TR/2001/REC-SVG-20010904/DTD/svg10.dtd">
<svg version="1.0" xmlns="http://www.w3.org/2000/svg"
 width="300.000000pt" height="289.000000pt" viewBox="0 0 300.000000 289.000000"
 preserveAspectRatio="xMidYMid meet">
<metadata>
Created by potrace 1.10, written by Peter Selinger 2001-2011
</metadata>
<g transform="translate(0.000000,289.000000) scale(0.100000,-0.100000)"
fill="#000000" stroke="none">
<path d="M860 2782 c-428 -212 -721 -602 -807 -1077 -33 -185 -19 -434 36
-635 128 -460 489 -838 951 -993 154 -51 155 -47 21 49 -148 106 -327 275
-417 393 -85 113 -167 279 -200 406 -68 267 -43 535 78 843 37 92 57 124 58
90 1 -20 89 -170 157 -265 77 -108 188 -239 331 -388 186 -194 279 -320 357
-480 24 -49 50 -112 57 -140 14 -58 28 -80 28 -44 0 26 37 135 65 190 85 167
165 271 419 539 176 186 332 395 401 537 17 34 33 62 37 62 12 1 90 -212 119
-327 96 -377 30 -723 -195 -1023 -89 -118 -268 -287 -417 -393 -134 -96 -133
-99 21 -49 249 81 504 255 669 456 225 276 335 585 334 937 -1 240 -43 422
-148 636 -113 232 -292 438 -502 578 -92 61 -258 146 -285 146 -7 0 2 -15 19
-32 62 -67 124 -175 150 -262 20 -67 20 -197 0 -264 -47 -156 -179 -356 -374
-565 -147 -159 -269 -330 -304 -429 -7 -21 -16 -38 -19 -38 -3 0 -14 22 -23
49 -27 73 -122 214 -228 334 -255 291 -318 375 -388 515 -58 114 -71 163 -72
268 0 133 43 242 147 369 24 30 39 55 32 55 -7 -1 -56 -22 -108 -48z"/>
</g>
</svg>
